<?xml version="1.0" encoding="utf-8"?><svg xmlns="http://www.w3.org/2000/svg" xmlns:xlink="http://www.w3.org/1999/xlink"><symbol fill="currentcolor" viewBox="0 0 21 18" id="ico-folder" xmlns="http://www.w3.org/2000/svg"><path d="M17.58 17.49h-15A2.58 2.58 0 010 14.91V3.07a2.59 2.59 0 01.76-1.82A2.53 2.53 0 012.58.49h2.9a2.45 2.45 0 011 .2c.314.125.6.312.84.55l1.82 1.84a.5.5 0 00.19.13.54.54 0 00.22 0h8.06a2.51 2.51 0 011 .2A2.499 2.499 0 0120 4.83c.134.317.202.657.2 1v9.1a2.59 2.59 0 01-2.58 2.58l-.04-.02zm-15-15a.57.57 0 00-.41.17.58.58 0 00-.17.41v11.84a.58.58 0 00.58.58h15a.58.58 0 00.58-.58v-9.1a.78.78 0 000-.22.941.941 0 00-.16-.18.94.94 0 00-.18-.12H9.6a2.5 2.5 0 01-1.82-.75L5.89 2.66a.59.59 0 00-.19-.13.72.72 0 00-.22 0l-2.9-.04z"/></symbol></svg>