<svg width="21" height="18" viewBox="0 0 21 18" fill="currentcolor" xmlns="http://www.w3.org/2000/svg">
	<path d="M17.58 17.4904H2.58C1.89574 17.4904 1.23951 17.2186 0.755665 16.7348C0.271821 16.2509 0 15.5947 0 14.9104V3.07042C0.00338783 2.38726 0.27655 1.73311 0.76 1.25042C0.997023 1.00833 1.28025 0.816316 1.59289 0.685764C1.90553 0.555212 2.2412 0.488783 2.58 0.490419H5.48C5.82367 0.486205 6.16439 0.554347 6.48 0.690419C6.79431 0.815061 7.08007 1.00217 7.32 1.24042L9.14 3.08042C9.19236 3.13794 9.25742 3.18245 9.33 3.21042C9.40256 3.22552 9.47744 3.22552 9.55 3.21042H17.61C17.9535 3.20795 18.2939 3.27602 18.61 3.41042C18.9265 3.53953 19.2131 3.73215 19.4521 3.97638C19.6912 4.22062 19.8777 4.51128 20 4.83042C20.1339 5.14672 20.2019 5.48697 20.2 5.83042V14.9304C20.1974 15.6139 19.9247 16.2686 19.4414 16.7518C18.9582 17.2351 18.3034 17.5078 17.62 17.5104L17.58 17.4904ZM2.58 2.49042C2.50376 2.4899 2.4282 2.50467 2.35777 2.53387C2.28735 2.56307 2.2235 2.6061 2.17 2.66042C2.06121 2.76914 2.00006 2.91662 2 3.07042V14.9104C2 15.0642 2.06111 15.2118 2.16988 15.3205C2.27865 15.4293 2.42617 15.4904 2.58 15.4904H17.58C17.7338 15.4904 17.8814 15.4293 17.9901 15.3205C18.0989 15.2118 18.16 15.0642 18.16 14.9104V5.81042C18.1704 5.73745 18.1704 5.66338 18.16 5.59042C18.1146 5.52381 18.0608 5.46331 18 5.41042C17.9448 5.36362 17.8844 5.32336 17.82 5.29042H17.6H9.6C9.26167 5.29508 8.92592 5.23101 8.61308 5.10209C8.30024 4.97317 8.01682 4.78209 7.78 4.54042L5.89 2.66042C5.83582 2.60503 5.77126 2.56086 5.7 2.53042C5.6271 2.51915 5.5529 2.51915 5.48 2.53042L2.58 2.49042Z" />
</svg>
